<svg width="276" height="501" viewBox="0 0 276 501" fill="none" xmlns="http://www.w3.org/2000/svg">
<path d="M69.1407 439.47L66.4107 438.21L60.3907 435.159L58.842 434.174C57.1727 432.325 55.2112 430.762 53.0357 429.549L49.6995 427.074C47.1045 425.03 45.4757 422.009 42.9182 419.91L41.9932 418.276C40.821 416.955 39.7931 415.513 38.927 413.974C37.8339 412.569 36.6501 411.237 35.3832 409.987C34.1883 408.652 33.3779 407.017 33.0382 405.257C32.9024 403.981 32.5022 402.746 31.8632 401.632C30.4882 399.906 29.8945 397.737 28.567 396.072C27.692 394.981 27.932 393.467 27.067 392.615C24.7645 390.332 24.0082 387.032 21.8695 384.635C21.077 383.749 21.1069 382.044 20.2807 381.234C19.2567 379.956 18.459 378.513 17.9219 376.966C16.9907 375.162 15.9807 373.4 15.1907 371.517C13.2982 370.492 13.082 368.356 12.3557 366.655C11.1031 364.287 10.101 361.796 9.3657 359.22L8.5957 357.944C8.2219 357.588 7.93504 357.15 7.7573 356.666C7.57956 356.181 7.51572 355.662 7.57071 355.149C7.43624 353.62 7.07564 352.119 6.5007 350.696C7.3232 348.892 5.68446 347.839 5.09321 346.581C4.0116 344.554 3.20692 342.391 2.70071 340.15L2.32571 339.09C0.759459 338.009 0.864449 336.182 0.354449 334.642C-0.00411572 333.539 -0.0922635 332.366 0.0974335 331.222C0.287131 330.078 0.749119 328.996 1.44445 328.067C2.46121 326.614 3.2163 324.993 3.67571 323.28C3.91098 322.157 4.57464 321.171 5.5257 320.53L6.79321 319.576C6.72621 317.01 7.23893 314.462 8.29321 312.121C9.03563 310.789 9.61202 309.37 10.0095 307.897C10.4954 306.463 11.1235 305.081 11.8845 303.772C13.3232 300.23 14.692 296.657 16.082 293.094L16.267 292.357C16.2208 290.696 16.6279 289.054 17.4445 287.607C17.7147 287.019 17.8594 286.38 17.8695 285.732C17.9559 283.298 18.6081 280.918 19.7745 278.78C20.579 277.188 21.0204 275.438 21.067 273.655C21.0216 273.141 21.0982 272.624 21.2907 272.146C22.0833 270.138 22.6803 268.058 23.0732 265.935C23.7142 263.719 23.975 261.411 23.8445 259.109C23.6808 257.967 23.8538 256.802 24.3423 255.757C24.8307 254.712 25.6134 253.833 26.5945 253.226L27.3945 252.441C28.7207 249.98 30.0532 247.52 31.3007 245.015C31.4962 244.718 31.6032 244.371 31.6092 244.016C31.6153 243.66 31.5201 243.31 31.3348 243.007C31.1495 242.704 30.8818 242.459 30.5628 242.302C30.2438 242.145 29.8867 242.082 29.5332 242.12C27.6658 242.202 25.7952 242.072 23.9569 241.734C21.9932 241.461 20.0133 241.321 18.0307 241.314L16.7195 241.62L16.1732 240.909L14.737 239.671C14.4172 239.459 14.1557 239.17 13.9765 238.831C13.7973 238.491 13.7061 238.112 13.7112 237.728C13.7163 237.345 13.8175 236.968 14.0057 236.634C14.1938 236.299 14.4629 236.017 14.7882 235.814C15.6923 235.418 16.5438 234.912 17.3232 234.306C19.3757 232.663 21.7548 231.476 24.302 230.825C25.3885 230.235 26.6139 229.948 27.8495 229.995C29.452 230.236 30.7445 229.294 32.2245 229.35C33.9495 229.416 34.6719 227.739 35.8394 227.069C36.8032 227.274 37.9345 227.999 38.312 226.91C38.827 225.424 40.267 226.024 41.197 225.025C41.2402 223.699 41.6911 222.418 42.4882 221.357C44.0135 219.347 45.3315 217.187 46.422 214.911C47.2239 213.192 47.9332 211.43 48.547 209.635C49.1675 208.537 49.6787 207.38 50.0732 206.182C50.6464 204.922 51.0346 203.586 51.2257 202.215L51.7719 200.797C53.6057 198.012 53.8257 194.455 55.8232 191.746L56.0732 190.64C56.1093 189.476 56.5674 188.366 57.362 187.515L57.6682 186.12C57.5096 184.217 57.9001 182.308 58.7932 180.62C59.4085 179.499 59.6981 178.228 59.6295 176.951C59.4458 174.905 59.7411 172.844 60.492 170.932L60.7295 169.432C60.342 166.674 62.2745 164.286 61.8345 161.529L61.9757 161.182C63.1565 159.18 63.6095 156.831 63.2582 154.532C62.9973 152.352 63.3742 150.144 64.3432 148.174C64.5604 147.722 64.6304 147.214 64.5432 146.721C64.5323 145.827 64.5925 144.933 64.7232 144.049C65.0454 142.679 65.0153 141.25 64.6357 139.895C64.5297 139.595 64.4896 139.276 64.5181 138.959C64.5466 138.643 64.643 138.336 64.8007 138.06C65.762 136.854 65.1757 135.152 65.9732 134.089C67.0557 132.646 65.8932 131.359 66.1082 130.035C66.2685 128.64 66.5427 127.26 66.9282 125.91C67.5502 124.504 67.7774 122.954 67.5857 121.429C67.4274 120.802 67.4517 120.144 67.6557 119.531C68.1964 118.362 68.4993 117.096 68.5467 115.809C68.5941 114.521 68.3852 113.237 67.932 112.031L67.9082 111.649C68.6745 108.75 67.317 105.739 68.2832 102.842L68.1732 101.717C67.307 100.592 67.9095 99.4949 68.107 98.3974C68.3614 97.6795 68.5411 96.9372 68.6432 96.1824C68.5332 93.6136 68.3682 91.0399 68.0457 88.4899C67.8569 86.9899 66.9845 85.5624 67.7957 84.0024L67.6995 83.2786C67.0406 81.7683 66.7193 80.1323 66.7582 78.4849C66.4757 76.5086 65.1645 74.6249 66.077 72.5011L65.827 71.8061C65.0245 70.5174 65.1795 68.7249 63.7957 67.7449L61.5919 61.6086C61.3832 61.0024 61.2582 60.3524 60.6095 60.1474C58.4995 60.6224 56.4257 61.0649 55.3957 63.0111C54.472 63.3561 53.6745 62.3036 53.0795 63.0774C52.3851 63.7839 51.4946 64.2656 50.5232 64.4599C47.8352 64.9758 45.2822 66.0395 43.0232 67.5849L41.967 67.9299C40.162 68.3711 38.342 68.7449 36.557 69.2624C35.8325 69.4396 35.1767 69.8271 34.672 70.3761C33.6897 71.4387 32.4525 72.2329 31.0774 72.6835C29.7024 73.1341 28.2351 73.2262 26.8145 72.9511C26.3699 72.9356 25.9351 72.8167 25.5446 72.6038C25.154 72.391 24.8184 72.09 24.5645 71.7249L23.5832 70.0899C23.0869 68.6319 22.1357 67.3717 20.8695 66.4949C19.4668 65.379 18.4217 63.8768 17.8632 62.1736C17.1595 60.2611 16.1332 58.4761 15.2582 56.6274C14.9238 56.0859 14.6838 55.4917 14.5482 54.8699C14.2275 52.4786 13.2853 50.2133 11.8157 48.2999C12.2756 47.1958 12.5142 46.0122 12.5182 44.8161C12.2653 43.434 12.4542 42.0073 13.0582 40.7386L13.3019 38.8524C13.4016 35.9216 14.3711 33.0867 16.087 30.7086C17.1467 29.5771 17.7288 28.0801 17.712 26.5299L18.3207 25.2386C19.3564 24.4827 20.0745 23.369 20.3357 22.1136C20.9933 20.0444 22.0684 18.1321 23.4945 16.4949L24.272 15.2236C24.1945 13.6711 25.3082 12.9736 26.147 12.0524C27.188 11.1429 28.0842 10.0798 28.8045 8.89988C30.3395 6.14429 32.4952 3.78405 35.1007 2.00614C35.5176 1.61884 36.0261 1.34394 36.5784 1.20727C37.1308 1.0706 37.7088 1.07666 38.2582 1.22488C39.1106 1.40315 39.9767 1.50812 40.847 1.53863L41.8595 1.55488C43.4445 -0.036367 45.2807 0.466128 47.1332 0.744878C47.9999 0.893553 48.8885 0.850891 49.737 0.61988C50.6375 0.176803 51.6344 -0.0346614 52.6373 0.00462582C53.6402 0.043913 54.6175 0.332711 55.4807 0.84488L56.9507 0.984884C58.8024 1.10631 60.6374 1.41241 62.4282 1.89863C64.5986 2.82121 66.8493 3.54176 69.1519 4.05113C70.5319 4.26573 71.8044 4.92392 72.777 5.92613C73.7202 6.76188 74.716 7.53638 75.7582 8.24488L78.6882 10.6599C81.7233 13.1596 84.521 15.9343 87.0457 18.9486L87.8757 19.7261C88.7249 20.4786 89.4875 21.3234 90.1494 22.2449C90.49 22.853 90.9548 23.3828 91.5134 23.7997C92.072 24.2166 92.712 24.5114 93.392 24.6649L97.4245 25.4949C98.4895 25.7124 99.7045 25.2699 100.587 26.2836C102.312 26.0611 103.912 27.3824 105.697 26.7249L107.133 26.8811C107.822 27.1303 108.538 27.2945 109.267 27.3699C109.829 27.322 110.395 27.3887 110.931 27.566C111.466 27.7433 111.961 28.0274 112.383 28.4011L114.833 30.0936L115.994 30.0061C116.637 29.8531 117.305 29.834 117.956 29.9502C118.606 30.0664 119.226 30.3152 119.776 30.6813C120.326 31.0474 120.795 31.5229 121.154 32.0782C121.512 32.6334 121.752 33.2565 121.859 33.9086C122.112 35.0368 122.124 36.2055 121.894 37.3386C121.124 40.3236 121.019 43.3986 120.538 46.4174C120.057 49.4361 119.712 52.4861 119.108 55.4736C118.171 60.0986 117.709 64.8324 116.443 69.3936C116.16 70.2506 116.026 71.15 116.047 72.0524C116.045 74.2483 115.185 76.3565 113.651 77.9274C112.651 79.0424 111.574 80.0866 110.429 81.0524L108.679 82.9986L107.207 85.2086C106.836 85.6482 106.575 86.1695 106.444 86.7297C106.314 87.2899 106.318 87.873 106.457 88.4311C106.588 89.7206 107.126 90.935 107.993 91.8986C109.83 94.0188 111.559 96.2299 113.174 98.5236C114.867 100.591 116.243 102.9 117.256 105.372C118.176 107.895 119.838 110.08 122.022 111.642C122.723 112.193 123.363 112.818 123.929 113.507C125.829 115.52 126.554 116.654 123.979 119.805C123.386 120.446 122.7 120.994 121.943 121.43C120.379 122.225 118.979 123.31 117.818 124.626L116.633 125.536C113.746 127.095 111.16 129.158 108.999 131.627L108.067 132.227C107.769 132.333 107.5 132.504 107.278 132.728C107.056 132.952 106.888 133.224 106.786 133.522C105.989 134.911 105.422 136.419 105.108 137.989L106.599 140.81C107.061 141.997 107.934 142.978 109.058 143.576C109.892 144.142 110.655 144.805 111.331 145.552C111.581 147.635 114.024 148.154 114.413 150.136C116.23 151.874 117.946 153.714 119.552 155.647C120.057 156.035 120.422 156.576 120.591 157.19C120.727 157.938 121.021 158.648 121.454 159.273C121.887 159.898 122.448 160.424 123.099 160.815C124.504 161.701 125.639 162.955 126.382 164.44C126.583 165.045 126.908 165.601 127.336 166.072C127.764 166.544 128.287 166.921 128.869 167.179C129.709 167.647 130.403 168.336 130.878 169.172C131.352 170.008 131.588 170.958 131.559 171.919L131.327 173.019C130.432 174.841 129.305 176.54 127.973 178.072L123.064 182.726C120.416 184.887 118.239 187.567 116.666 190.601C116.132 191.608 115.44 192.523 114.617 193.311C113.05 194.575 111.732 196.118 110.727 197.862L109.957 198.682L108.984 200.271C110.191 201.633 111.477 202.923 112.834 204.135C114.398 205.385 116.188 206.326 117.834 207.479L119.031 208.882L118.606 211.632L118.106 212.647C116.833 214.402 115.869 216.36 115.253 218.439C114.943 219.134 114.809 220.036 114.298 220.49C112.55 222.664 111.053 225.028 109.833 227.537L109.158 229.31C108.878 231.2 108.174 233.002 107.098 234.581C106.67 235.368 106.43 236.243 106.398 237.139C106.315 237.452 106.355 237.786 106.51 238.071C106.665 238.356 106.923 238.572 107.232 238.672C107.774 238.944 108.376 239.076 108.982 239.054C110.334 238.91 111.701 239.01 113.018 239.349C115.597 239.715 117.948 240.962 120.518 241.447C122.606 241.842 123.226 242.774 123.423 244.862C123.516 245.631 123.532 246.407 123.472 247.179L122.554 254.804L122.172 257.839C121.677 261.403 121.654 265.018 122.101 268.589L122.089 269.354C121.589 271.089 121.527 272.921 121.908 274.686C121.949 275.196 121.896 275.708 121.752 276.199C121.423 278.616 121.501 281.071 121.981 283.462C122.823 282.62 123.616 282.196 123.773 281.587C124.074 280.485 124.747 279.52 125.678 278.857C126.267 278.376 126.757 277.786 127.123 277.12L127.514 275.331C127.003 273.935 127.702 273.132 128.529 272.304L129.833 270.945C132.676 267.092 135.928 263.56 139.533 260.41L140.258 259.614C140.649 257.534 142.689 256.83 143.649 255.214C143.762 255.057 143.905 254.924 144.07 254.823C144.235 254.723 144.418 254.656 144.609 254.627C144.8 254.598 144.995 254.608 145.182 254.655C145.37 254.703 145.545 254.787 145.699 254.904C147.109 255.724 148.4 256.733 149.537 257.904C150.952 260.017 152.632 261.94 154.537 263.625C157.068 265.902 159.419 268.372 161.569 271.012C163.77 273.266 166.346 275.118 169.183 276.485C170.522 277.181 172.037 277.465 173.537 277.301C174.804 277.184 175.944 276.676 177.146 276.5C178.491 276.445 179.838 276.482 181.178 276.611L182.531 276.09C185.951 275.102 188.332 272.215 191.567 270.897C192.598 269.835 193.857 269.02 195.248 268.514C196.371 268.676 197.514 268.636 198.623 268.396C200.946 267.184 203.506 266.492 206.123 266.37L207.157 265.942L209.239 265.104C209.638 264.91 210.074 264.806 210.517 264.799C210.96 264.792 211.399 264.882 211.803 265.063C212.208 265.244 212.567 265.512 212.857 265.847C213.147 266.182 213.36 266.576 213.481 267.002C213.794 267.71 213.969 268.471 213.996 269.245C214.332 271.277 214.346 273.349 214.038 275.385L214.297 276.831L214.844 279.064C214.917 280.656 215.463 282.19 216.412 283.471C217.361 284.752 218.671 285.72 220.173 286.252L222.152 286.877C222.22 287.772 222.509 288.635 222.992 289.39C223.476 290.145 224.139 290.769 224.923 291.205C226.768 292.542 228.503 294.023 230.113 295.635C230.596 296.076 231.019 296.521 231.718 296.447C233.239 296.285 233.911 297.35 234.593 298.49C236.291 301.319 238.47 303.83 241.031 305.91C242.808 307.536 244.432 309.322 245.883 311.245L246.546 313.017L247.032 314.465L249.532 317.84C250.468 319.09 249.954 320.947 251.206 322.072L251.437 322.376L252.871 325.501C253.238 326.457 253.666 327.389 254.152 328.291C256.469 332.164 257.713 336.584 257.757 341.097C257.805 342.636 258.022 344.165 258.404 345.656C259.058 348.127 259.947 350.531 260.672 352.985C260.974 353.697 261.065 354.481 260.934 355.244C260.502 357.25 260.312 359.302 260.369 361.354C259.936 364.264 259.352 367.149 258.619 369.999C258.163 371.471 257.945 373.006 257.976 374.547C258.311 378.4 258.483 382.266 258.843 386.116C259.06 388.405 259.701 390.633 260.734 392.687C261.452 394.189 262.011 395.762 262.403 397.38C263.165 401 264.403 404.504 266.084 407.799C266.808 409.3 267.409 410.858 267.881 412.456C268.428 414.435 269.256 416.325 270.339 418.069C271.608 419.774 271.858 422.216 273.939 423.344L274.176 423.64C274.631 425.232 275.146 426.812 275.494 428.429C275.546 428.94 275.404 429.452 275.096 429.863C274.788 430.274 274.337 430.554 273.832 430.649C273.055 430.91 272.223 430.964 271.418 430.805C270.614 430.647 269.865 430.281 269.244 429.745L267.961 428.995C265.502 427.742 263.12 426.345 260.827 424.811C258.722 422.246 255.371 421.236 253.409 418.48L252.497 417.832C251.251 417.601 250.07 417.105 249.033 416.378C247.995 415.65 247.126 414.708 246.484 413.616L245.587 412.919L240.693 409.464C239.484 410.933 238.66 412.681 238.294 414.549C237.373 417.206 236.799 419.972 236.587 422.777C234.848 429.459 234.422 436.41 232.768 443.11L232.368 445.767C231.665 448.606 231.279 451.514 231.218 454.437C231.16 455.073 231.018 455.699 230.796 456.297C230.26 457.736 229.934 459.244 229.827 460.775C229.983 463.025 228.349 464.552 228.216 466.599C226.397 468.424 225.982 471.127 224.324 473.115C223.717 473.675 223.236 474.359 222.917 475.122C222.598 475.884 222.446 476.706 222.473 477.532C222.419 478.172 222.117 478.766 221.633 479.187C221.064 479.866 220.654 480.664 220.433 481.522L219.106 484.25L217.693 486.939L216.783 488.606C214.144 491.822 211.469 495.005 208.908 498.082C207.857 498.255 206.817 498.491 205.793 498.787C204.958 499.134 204.148 499.538 203.369 499.997L201.563 499.059C200.459 499.389 199.969 498.845 199.397 498.076C198.313 496.519 197.131 495.032 195.858 493.624C194.554 492.274 192.989 491.196 191.587 489.942C191.081 489.562 190.701 489.04 190.494 488.442C190.144 487.212 190.064 485.921 190.258 484.657C190.641 483.171 190.767 481.631 190.633 480.102C190.525 479.341 190.573 478.566 190.776 477.824C191.218 476.6 191.198 475.256 190.719 474.046C190.279 473.261 190.073 472.366 190.124 471.468C190.175 470.569 190.482 469.704 191.008 468.974L191.208 468.245C191.466 465.072 190.99 461.883 189.818 458.924L189.498 458.745C185.876 457.844 182.141 457.483 178.413 457.674L177.663 457.646C174.568 457.285 171.439 457.333 168.357 457.789C167.714 457.784 167.088 457.997 166.581 458.393C166.074 458.789 165.716 459.345 165.564 459.97C165.11 461.161 164.795 462.4 164.627 463.664C164.598 465.588 164.268 467.495 163.649 469.317L163.608 470.442C163.966 472.452 163.971 474.51 163.621 476.521C163.512 477.402 163.589 478.296 163.846 479.146C164.318 480.351 164.367 481.681 163.983 482.917C162.841 486.015 161.117 488.865 158.902 491.314C157.929 492.471 156.877 493.561 155.754 494.574L151.352 498.709L150.367 499.209C148.024 499.499 145.703 499.946 143.419 500.547C141.868 500.849 140.26 500.531 138.939 499.664C137.802 500.011 136.645 500.29 135.474 500.497C133.369 500.74 131.247 500.84 129.132 500.987C128.624 501.034 128.114 500.927 127.666 500.683C127.219 500.438 126.854 500.065 126.619 499.612C126.091 498.73 125.768 497.74 125.674 496.716C125.504 495.318 125.23 493.934 124.854 492.576C124.522 490.156 123.76 487.816 122.604 485.664L122.468 484.914C122.433 483.878 122.032 482.889 121.336 482.121C120.895 481.655 120.577 481.088 120.41 480.469C120.242 479.85 120.231 479.199 120.376 478.575C120.488 477.818 120.364 477.045 120.021 476.361C119.614 475.42 119.372 474.416 119.306 473.392C119.254 472.499 118.973 471.635 118.487 470.883C118.002 470.131 117.331 469.518 116.538 469.104C115.157 468.45 113.957 467.469 113.042 466.245C110.657 463.301 107.625 460.948 104.181 459.37C103.408 459.018 102.687 458.563 102.037 458.017C99.9831 455.603 97.1226 454.016 93.987 453.551C93.1321 453.36 92.2987 453.082 91.4995 452.724C90.8118 452.424 90.2219 451.938 89.7969 451.32C89.2604 450.396 88.5075 449.617 87.603 449.049C86.6984 448.481 85.6694 448.141 84.6044 448.059C82.844 447.888 81.1899 447.138 79.9007 445.927C79.4617 445.472 78.9154 445.135 78.3119 444.946C77.7084 444.757 77.0671 444.723 76.447 444.846L75.2195 444.806C74.1332 441.92 71.517 440.837 69.1407 439.47ZM87.6107 276.946C87.4053 276.54 87.296 276.092 87.2912 275.637C87.2864 275.182 87.3863 274.732 87.5832 274.321C88.348 272.268 88.5635 270.05 88.2082 267.887C88.1874 266.985 88.0892 266.086 87.9144 265.2C87.6985 264.345 87.6979 263.45 87.9125 262.594C88.1272 261.739 88.5504 260.95 89.1444 260.299L87.9807 256.12C87.4503 254.958 87.3654 253.641 87.7419 252.42C87.858 252.118 87.9105 251.796 87.8961 251.474C87.8817 251.151 87.8007 250.835 87.6582 250.545C86.5782 248.775 87.327 247.012 87.6207 245.335C87.8426 244.218 87.9112 243.076 87.8244 241.94C87.4434 239.776 87.421 237.565 87.7582 235.394L87.8095 234.644C86.492 230.909 88.2932 227.29 88.1195 223.599L88.4945 222.521C88.707 222.133 88.8288 221.702 88.8504 221.261C88.8721 220.819 88.7931 220.378 88.6194 219.971C88.3547 219.117 88.3007 218.212 88.4619 217.332C89.0811 214.333 89.4871 211.293 89.677 208.236C89.7498 205.425 90.0698 202.625 90.6332 199.87C91.2082 196.217 91.8445 192.569 92.6482 188.966C92.8074 186.799 93.3673 184.679 94.2994 182.716L94.2632 181.599L94.8882 177.04C94.9811 176.54 94.9996 176.028 94.9432 175.522C94.7354 173.491 95.0544 171.44 95.8695 169.567C96.2854 168.638 96.5257 167.639 96.5782 166.622C96.409 161.128 96.8784 155.633 97.977 150.247L98.062 149.135C97.4542 147.578 97.3338 145.872 97.717 144.245C97.7807 143.094 97.6168 141.942 97.2345 140.855C96.5534 139.171 96.5534 137.289 97.2345 135.605C98.3866 132.054 98.6065 128.266 97.8732 124.605C97.6712 123.75 97.5904 122.872 97.6332 121.995C97.7675 121.233 97.751 120.452 97.5845 119.696C96.9068 116.168 97.0088 112.535 97.8832 109.051C98.04 108.316 98.0086 107.553 97.7919 106.834C96.7143 103.266 96.4465 99.5021 97.0082 95.8174L97.1332 95.0674C97.2419 93.7949 95.8744 92.7736 96.5844 91.3649C96.9895 90.2612 96.9496 89.0434 96.4732 87.9686C96.1658 86.7167 96.3393 85.395 96.9594 84.2649L98.3807 81.1399L98.8807 79.7149C98.5307 77.3849 99.5057 75.1911 99.3345 72.8499C99.2903 70.6765 99.4182 68.5031 99.7169 66.3499L100.166 64.1199C100.201 62.5999 100.086 61.0761 100.041 59.5524C99.9949 59.0487 100.01 58.5413 100.084 58.0411C100.984 54.8718 101.115 51.5338 100.467 48.3036C99.9825 46.4551 99.1557 44.7137 98.0294 43.1699C96.8246 40.6301 95.2016 38.3107 93.2282 36.3086L92.4632 34.5799C92.3021 33.828 91.8735 33.1602 91.2572 32.7004C90.6408 32.2406 89.8786 32.0201 89.112 32.0799L88.0157 31.8024C86.7845 30.3699 85.3395 29.0424 86.062 26.9049L82.3207 22.4599L81.4757 21.7011C77.9866 19.1796 74.7868 16.2804 71.9345 13.0561C69.3906 10.7916 66.2965 9.23508 62.962 8.54238C60.075 7.77157 57.1487 7.15652 54.1957 6.69988C51.7312 6.26206 49.2161 6.18501 46.7295 6.47113L43.7445 6.68238C42.239 6.63663 40.7516 7.01986 39.4557 7.78738C38.527 8.36988 37.2582 8.42988 36.412 9.09363C35.1805 10.1665 34.0418 11.3415 33.0082 12.6061C31.3964 14.0158 30.0014 15.6555 28.8682 17.4724C28.3139 18.3208 27.8971 19.2514 27.6332 20.2299C27.5066 20.9878 27.1761 21.6969 26.677 22.2811C24.9794 24.6582 23.5708 27.2287 22.4807 29.9386C21.5192 31.7319 20.6733 33.5849 19.9482 35.4861C19.3142 37.2912 18.7817 39.1303 18.3532 40.9949C18.0095 42.343 17.7548 43.7122 17.5907 45.0936C17.5251 45.7283 17.6505 46.3681 17.9507 46.9311C19.1541 49.1922 20.0016 51.6254 20.4632 54.1449C21.1649 56.2069 22.1692 58.1532 23.4432 59.9199C24.372 61.5861 25.6257 63.0586 26.6045 64.6999C26.8521 65.2184 27.2827 65.627 27.8133 65.8473C28.344 66.0677 28.9374 66.0842 29.4795 65.8936C32.0353 65.3569 34.5232 64.5364 36.897 63.4474C38.2132 62.4835 39.7558 61.8756 41.3757 61.6824L42.3832 61.2111C43.8996 59.8977 45.7866 59.0879 47.7832 58.8936C49.1294 58.5936 50.3911 57.9956 51.4757 57.1436C52.9239 55.9433 54.5902 55.0337 56.3832 54.4649C57.4343 54.1429 58.4103 53.6135 59.2534 52.908C60.0965 52.2026 60.7897 51.3353 61.292 50.3574L62.6007 51.3049C63.7207 51.5959 64.7109 52.2538 65.4133 53.1734C66.1157 54.0931 66.4897 55.2215 66.4757 56.3786C67.0226 60.0543 67.9699 63.659 69.3007 67.1286C69.6507 68.7515 70.1646 70.3346 70.8345 71.8536C71.4394 73.2551 71.8949 74.7166 72.1932 76.2136L72.4057 76.9336C71.677 79.1599 72.9057 81.1961 73.042 83.3449C73.217 86.1486 73.907 88.9186 74.3132 91.7124C74.6431 93.2284 74.6149 94.8005 74.2307 96.3036L74.1057 97.4424C74.0095 100.257 74.0745 103.092 73.7795 105.884C73.5184 107.664 73.4802 109.469 73.6657 111.259C73.9245 113.045 73.4382 114.791 73.8032 116.619C73.9316 118.142 73.7548 119.677 73.2832 121.131C72.9957 122.115 72.8928 123.144 72.9795 124.165C73.163 126.343 72.8919 128.535 72.1832 130.602C71.7548 131.946 71.5487 133.351 71.5732 134.761C71.6328 136.691 71.2711 138.61 70.5132 140.386C70.1575 141.339 69.9976 142.354 70.0432 143.37C70.0619 145.419 69.9182 147.474 69.7407 149.516C69.5866 150.118 69.3417 150.694 69.0145 151.222L68.6207 152.222C69.6082 153.826 68.0869 155.255 68.3619 156.647C68.3936 158.046 68.22 159.442 67.8469 160.791C67.5702 162.561 67.4032 164.347 67.347 166.137C67.2302 168.423 66.8357 170.685 66.172 172.875C65.8641 173.835 65.4744 174.767 65.0069 175.661C64.133 178.328 63.5 181.068 63.1157 183.849L62.3057 188.36C61.987 189.841 61.414 191.256 60.612 192.541C59.9307 193.805 60.1795 195.571 59.652 196.966C59.0397 198.485 58.5413 200.048 58.1607 201.641C57.2778 204.704 55.8411 207.58 53.922 210.125C53.1002 211.26 52.457 212.515 52.0145 213.845C51.3495 216.189 49.727 218.025 48.912 220.307C48.067 222.672 46.9582 224.932 45.9657 227.242L49.0982 230.686C47.7559 232.12 46.071 233.189 44.202 233.792C43.7086 233.887 43.245 234.098 42.8494 234.407C42.4537 234.717 42.1375 235.116 41.927 235.572L39.847 239.634L39.182 240.976C39.1025 242.771 38.3584 244.471 37.0945 245.747L36.3832 247.484C36.302 248.115 36.1606 248.737 35.9607 249.341C34.9568 250.799 34.0631 252.33 33.287 253.921C32.7294 255.463 32.0424 256.954 31.2332 258.38C29.8458 260.686 29.0063 263.28 28.7795 265.961C28.7908 266.602 28.749 267.243 28.6545 267.877C28.102 270.239 27.6057 272.627 26.857 274.924C26.0924 276.833 25.7834 278.894 25.9544 280.944C25.9851 281.458 25.908 281.973 25.728 282.456C25.5481 282.939 25.2693 283.379 24.9095 283.747C23.9529 285.068 23.3453 286.609 23.1432 288.227C22.958 290.276 22.1457 292.217 20.817 293.787C20.5437 294.054 20.331 294.376 20.1934 294.732C20.0558 295.088 19.9964 295.469 20.0195 295.85C20.6007 297.467 19.057 298.436 19.1745 299.819C19.1215 301.232 18.7182 302.61 18.0007 303.829C16.1707 308.292 14.7507 312.924 12.7932 317.337C12.2307 318.609 11.9032 319.99 11.4357 321.309C10.9838 323.303 10.2104 325.21 9.1457 326.956L8.68071 328.387C8.51571 329.782 9.0307 331.32 9.75945 331.456C10.3406 331.664 10.9659 331.718 11.5742 331.612C12.1824 331.507 12.7527 331.245 13.2295 330.852C14.8737 329.307 16.9437 328.29 19.1719 327.934C20.0334 327.835 20.8649 327.558 21.6132 327.12C23.9593 325.677 26.6167 324.818 29.3632 324.612C31.2032 324.415 33.0182 324.1 34.817 323.737C35.6205 323.606 36.4433 323.657 37.2248 323.885C38.0062 324.114 38.7267 324.514 39.3332 325.057C39.6678 325.359 39.8981 325.758 39.9909 326.199C40.0837 326.639 40.0342 327.098 39.8495 327.509C39.6375 328.039 39.321 328.522 38.9188 328.927C38.5166 329.333 38.0369 329.653 37.5082 329.87C36.2749 330.48 34.9259 330.821 33.5507 330.87C29.9358 330.953 26.395 331.912 23.2319 333.664C20.9149 334.851 18.4366 335.694 15.8757 336.164L14.5295 336.7C13.9802 337.389 13.2733 337.936 12.4685 338.295C11.6636 338.654 10.7842 338.814 9.90445 338.762C9.71218 338.778 9.52597 338.837 9.36013 338.935C9.19429 339.034 9.05325 339.169 8.94786 339.33C8.84246 339.492 8.77552 339.676 8.75218 339.867C8.72883 340.059 8.74972 340.253 8.81321 340.435C9.40279 343.319 10.3646 346.114 11.6745 348.75C11.9245 349.25 12.6745 349.47 13.0782 349.926L13.6657 351.211C13.5143 352.071 13.6616 352.957 14.0832 353.722C15.7603 356.729 16.8927 360.009 17.4282 363.41L17.9932 364.754C18.7163 365.806 19.3638 366.909 19.9307 368.054C21.8194 372.834 24.9307 376.955 26.822 381.726C28.4857 383.316 28.547 385.942 30.3282 387.462L30.7382 388.095C30.8044 389.22 30.5307 390.527 31.6732 391.212C32.907 391.952 32.9232 393.396 33.7032 394.38C34.4125 395.286 35.0546 396.242 35.6245 397.241C36.9234 399.73 38.4424 402.097 40.1632 404.315L40.6295 405.357C41.7646 408.03 43.2311 410.55 44.9945 412.857C46.4145 415.131 48.2107 417.122 49.7607 419.294C51.1658 421.235 53.0529 422.777 55.2357 423.767C56.1228 424.23 56.939 424.817 57.6595 425.511C59.2955 427.28 61.2131 428.767 63.3345 429.91C63.9774 430.311 64.5773 430.777 65.1245 431.301C65.8107 431.844 66.5533 432.311 67.3395 432.695C70.785 434.443 74.3734 435.893 78.0657 437.03L79.3757 437.735C80.1588 438.36 81.0359 438.858 81.9745 439.209C83.252 439.87 85.0082 439.737 85.6907 441.459C86.5858 441.888 87.5195 442.232 88.4795 442.485C89.8247 442.761 91.0713 443.392 92.0895 444.314C93.4239 445.216 94.8376 445.995 96.3132 446.641L97.5857 447.43C98.4739 448.666 99.707 449.613 101.131 450.151L101.926 450.926C102.191 451.359 102.575 451.706 103.032 451.928C103.489 452.149 103.999 452.235 104.503 452.176C104.881 452.155 105.257 452.228 105.6 452.388C105.943 452.548 106.24 452.79 106.467 453.092L108.348 454.979C109.147 455.961 110.181 456.725 111.354 457.201C113.108 457.918 114.712 458.955 116.086 460.26C117.497 461.651 118.752 461.279 120.227 460.086L118.992 456.197C118.518 454.522 118.713 454.009 120.428 452.055C121.807 453.677 123.568 454.93 125.553 455.7C126.357 456.043 127.263 456.06 128.079 455.749C131.236 454.549 134.13 452.751 136.603 450.452L137.603 448.852C137.89 447.873 138.292 446.932 138.802 446.049C140.151 444.339 140.976 442.274 141.177 440.105C141.387 438.711 141.849 437.368 142.541 436.14C142.849 435.587 143.038 434.974 143.094 434.343C143.15 433.712 143.071 433.076 142.864 432.477C142.624 430.445 142.754 428.385 143.248 426.399C143.312 425.51 143.471 424.622 143.453 423.735C143.237 422.076 143.305 420.391 143.654 418.755C143.769 417.994 143.755 417.219 143.613 416.462C143.213 413.395 143.224 410.289 143.647 407.225C143.936 405.894 143.397 404.462 143.882 403.039C144.074 402.465 143.531 401.591 143.248 400.884C142.468 399.249 142.259 397.401 142.654 395.634C142.796 394.879 142.815 394.106 142.711 393.345C142.461 389.745 142.137 386.149 141.917 382.547C142.013 381.271 142.027 379.989 141.958 378.711C141.658 377.605 141.506 376.464 141.508 375.319C141.568 374.421 141.422 373.522 141.081 372.689C140.74 371.857 140.214 371.113 139.542 370.515C137.872 368.442 135.76 366.77 133.359 365.62C132.45 365.18 131.612 364.606 130.873 363.916C129.498 362.866 128.401 361.327 126.458 361.266L125.833 360.867C124.734 358.911 122.382 358.506 121.103 356.722C120.737 356.202 120.266 355.763 119.72 355.436C119.174 355.109 118.565 354.901 117.933 354.824C117.059 354.688 116.233 354.332 115.533 353.79C113.149 351.935 110.547 350.386 108.312 348.32L106.783 347.297C105.419 346.39 103.984 345.575 102.717 344.547C101.697 343.841 100.636 343.197 99.5382 342.619C97.2407 341.155 94.3432 340.825 92.487 338.504C91.9234 338.018 91.2264 337.713 90.487 337.629L87.1795 337.097L85.7582 336.694L79.977 334.035L79.6332 333.902C76.5082 334.224 73.977 331.914 70.9507 331.791L69.5157 331.37C68.0213 330.483 66.4268 329.776 64.7657 329.265C63.2464 328.387 61.4857 328.019 59.742 328.215C58.9934 328.246 58.2518 328.06 57.607 327.679C55.9682 326.804 54.482 325.499 52.4332 326.13C50.0582 324.921 47.317 324.822 44.9957 323.621C42.8406 322.964 40.7643 322.072 38.8045 320.961L37.397 320.825L33.2995 320.887C31.4695 320.887 30.5857 318.825 30.4607 317.387L31.0395 316.495L32.1407 315.552C32.4232 314.861 32.3757 313.907 33.3332 313.852C34.1794 313.697 35.053 313.808 35.8332 314.171C36.162 314.446 36.5441 314.651 36.9556 314.772C37.3671 314.892 37.7991 314.927 38.2245 314.872C39.6219 314.747 41.016 315.146 42.1357 315.991C43.8064 317.109 45.7183 317.814 47.7145 318.05C49.1761 318.317 50.5959 318.776 51.937 319.416C53.6859 320.348 55.6379 320.833 57.6195 320.829C58.6258 320.842 59.6178 321.069 60.5295 321.495C62.3959 322.49 64.449 323.086 66.5582 323.245C67.8148 323.39 68.9899 323.941 69.9057 324.814C70.9945 325.729 72.2807 325.515 73.3907 326.022C74.4519 326.686 75.6767 327.041 76.9282 327.049L78.0082 327.232C79.4512 328.136 81.0839 328.692 82.7782 328.857C84.4544 329.342 86.0282 330.222 87.6895 330.759C90.5192 332.07 93.4132 333.239 96.3607 334.259L97.0482 334.564C99.6414 336.089 102.316 337.471 105.061 338.704L106.487 339.892L107.302 340.674C109.321 341.445 110.802 343.214 112.753 343.97C114.151 344.517 115.399 345.389 116.394 346.514C118.014 348.089 119.806 349.477 121.736 350.651L122.724 351.187C125.377 353.505 128.306 355.485 131.446 357.081L132.734 357.85C136.4 361.103 140.407 363.95 144.684 366.341C145.408 366.612 146.027 367.105 146.454 367.75C146.881 368.394 147.092 369.157 147.059 369.929L147.364 373.779C147.401 374.928 147.577 376.068 147.889 377.175C148.506 378.996 148.477 380.973 147.808 382.775C147.312 384.64 147.374 386.611 147.987 388.441C148.197 389.175 148.331 389.929 148.387 390.691C148.318 393.642 148.058 396.59 148.073 399.539C148.131 401.07 148.37 402.59 148.783 404.066C149.384 406.95 149.544 409.909 149.259 412.841C149.087 415.014 149.092 417.198 149.273 419.37C149.617 421.407 149.401 423.5 148.648 425.424L148.344 426.906C148.526 429.724 148.4 432.554 147.969 435.345C148.198 438.153 147.533 440.962 146.071 443.37L145.833 444.079C145.306 446.969 144.125 449.7 142.381 452.064C141.468 453.589 140.499 455.081 139.492 456.542C139.081 457.183 138.556 457.742 137.943 458.192C136.099 459.496 134.179 460.688 132.193 461.762C129.78 462.81 127.05 462.861 124.599 461.905C123.666 461.624 122.69 461.508 121.717 461.562C121.552 462.859 121.784 464.174 122.382 465.336C123.691 467.975 124.773 470.72 125.616 473.542C125.933 474.236 126.014 475.015 125.847 475.76L126.028 476.829C127.723 479.672 128.874 482.806 129.423 486.07C130.12 487.998 130.52 490.021 130.607 492.07C130.549 492.87 131.482 493.677 132.114 493.396C133.553 493.032 135.054 492.996 136.508 493.291C139.256 493.315 142.003 493.14 144.726 492.769C146.384 492.478 147.962 491.842 149.357 490.901C150.753 489.96 151.935 488.735 152.826 487.307L153.493 486.406C155.284 485.692 155.531 483.919 155.993 482.406C156.859 480.173 157.56 477.879 158.089 475.544C158.254 474.277 158.301 472.999 158.228 471.724C157.925 469.553 158.15 467.341 158.882 465.275C159.152 464.557 159.225 463.78 159.093 463.025C158.955 460.844 159.148 458.654 159.666 456.531L160.079 453.514C160.081 453.07 160.172 452.632 160.348 452.224C160.523 451.817 160.779 451.45 161.101 451.144C161.422 450.839 161.802 450.601 162.218 450.447C162.634 450.292 163.076 450.224 163.519 450.245C165.085 450.684 166.736 450.712 168.316 450.327L169.284 450.81L170.633 451.045C171.037 450.746 171.498 450.531 171.987 450.413C172.476 450.295 172.983 450.277 173.479 450.36C175.7 450.677 177.948 450.766 180.187 450.626C183.889 451.225 187.66 451.256 191.371 450.72L192.861 450.554C193.3 450.515 193.742 450.572 194.156 450.723C194.57 450.873 194.946 451.112 195.258 451.424C195.853 451.803 196.307 452.369 196.548 453.032C196.789 453.696 196.805 454.42 196.593 455.094C196.268 456.204 196.276 457.386 196.618 458.491C197.187 460.191 197.216 462.025 196.699 463.741C196.508 464.277 196.433 464.847 196.48 465.414C196.527 465.981 196.695 466.531 196.972 467.027C197.431 468.07 197.625 469.209 197.538 470.345C197.52 473.295 197.327 476.241 196.961 479.169C196.793 480.432 196.869 481.715 197.183 482.95C197.42 484.201 197.531 485.472 197.514 486.745L202.119 491.231C202.541 491.51 203.044 491.637 203.547 491.592C204.05 491.546 204.523 491.331 204.887 490.981C206.709 488.211 209.619 486.42 211.219 483.494C212.211 481.666 213.554 480.052 215.171 478.745C215.033 478.008 215.082 477.247 215.314 476.534C215.546 475.821 215.954 475.177 216.499 474.662L217.082 473.725C217.465 471.721 218.327 469.839 219.594 468.24C220.159 467.254 220.962 466.401 221.438 465.377C221.856 464.481 221.886 463.399 222.234 462.459C222.589 461.504 223.045 460.591 223.594 459.734C224.337 458.405 224.827 456.95 225.039 455.442C225.475 453.065 225.315 450.618 224.576 448.317C224.32 447.67 224.228 446.97 224.306 446.278C224.384 445.586 224.63 444.924 225.023 444.35C225.852 442.969 226.594 441.539 227.246 440.066C226.941 437.739 227.287 435.373 228.246 433.231L228.371 431.71L229.649 424.531L230.439 419.22C230.595 417.827 230.857 416.448 231.223 415.095C231.887 413.294 232.363 411.43 232.646 409.532C232.693 408.898 232.965 408.3 233.412 407.847C234.634 406.702 235.441 405.183 235.704 403.529C236.648 401.173 237.787 398.9 239.111 396.735C239.263 396.454 239.51 396.237 239.807 396.12C240.104 396.003 240.433 395.994 240.736 396.095L241.767 396.532C242.794 396.884 243.702 397.514 244.391 398.353C245.079 399.192 245.52 400.207 245.664 401.282L246.251 403.52C246.456 404.665 247.055 405.701 247.944 406.451L248.911 407.594C249.272 409.626 250.936 410.499 252.239 411.635C253.454 412.926 254.91 413.967 256.526 414.696C258.345 415.269 259.976 416.32 261.249 417.74C261.811 418.229 262.469 418.595 263.181 418.815L263.806 418.559L263.894 417.897L262.131 415.911C261.693 415.301 261.069 414.492 261.166 413.882C261.416 412.27 260.438 411.222 259.916 409.957C259.012 407.97 258.209 405.938 257.508 403.87C256.959 401.903 256.558 399.897 256.311 397.87C256.142 395.459 255.365 393.129 254.052 391.1C252.944 389.081 252.208 386.879 251.879 384.6C251.832 382.927 251.493 381.275 250.879 379.719C250.642 378.991 250.68 378.201 250.986 377.499C251.663 375.827 251.919 374.014 251.729 372.22L251.758 371.052C252.264 366.602 252.742 362.147 253.324 357.707C253.579 356.848 253.562 355.931 253.276 355.082C252.933 354.259 252.895 353.34 253.168 352.491C253.418 351.132 253.466 349.741 253.599 348.355C252.574 347.202 253.081 345.547 252.483 344.386C251.321 342.125 251.881 339.541 250.804 337.29C250.458 336.567 251.027 335.322 250.619 334.705C249.333 332.752 249.098 330.391 247.898 328.395C245.664 324.677 243.754 320.756 241.582 316.999C239.28 312.877 236.258 309.202 232.658 306.149C231.149 305.188 229.872 303.905 228.918 302.391L228.104 301.62C226.429 300.501 224.759 299.37 223.048 298.316C222.133 297.902 221.394 297.175 220.966 296.266C220.492 295.525 219.772 294.974 218.932 294.711C217.876 294.286 216.912 293.661 216.093 292.87C215.742 292.423 215.304 292.052 214.804 291.782C214.304 291.511 213.754 291.346 213.188 291.296C212.57 291.18 212.017 290.84 211.633 290.342C210.292 288.821 209.034 287.217 207.614 285.494C205.678 285.329 203.777 284.882 201.969 284.167C201.255 283.943 200.498 283.886 199.758 284.001C198.766 284.144 197.753 284.038 196.812 283.691L195.714 283.541C194.893 283.754 194.052 283.883 193.204 283.926C192.519 283.864 191.894 283.262 191.204 283.027C190.633 282.769 190.014 282.631 189.386 282.624C188.759 282.616 188.136 282.738 187.558 282.982C186.292 282.32 185.487 283.4 184.469 283.77C182.478 284.612 180.635 285.768 179.008 287.192C176.361 286.447 173.77 285.517 171.252 284.411C170.571 283.975 169.799 283.7 168.996 283.609C168.192 283.518 167.378 283.613 166.617 283.886C165.289 284.238 163.92 284.406 162.547 284.386C161.343 284.491 160.256 285.504 158.922 284.796L157.883 285.076C157.011 285.576 156.012 285.811 155.008 285.754C152.151 285.971 149.385 286.86 146.937 288.35C146.176 288.857 145.307 289.179 144.4 289.291C143.493 289.402 142.572 289.3 141.711 288.992C140.482 288.674 139.369 288.01 138.506 287.08L137.408 286.286C135.783 286.236 134.533 287.711 132.918 286.864L131.617 287.501C130.407 288.947 128.965 290.18 127.349 291.151L126.974 292.185L126.178 292.747C125.884 292.656 125.568 292.665 125.28 292.773C124.991 292.88 124.746 293.08 124.583 293.341C123.738 294.406 122.436 295.145 122.556 296.806C121.334 298.395 121.253 300.681 119.546 302.119C118.921 301.722 118.254 301.397 117.557 301.15C116.996 301.015 116.338 301.359 115.757 301.262C115.315 301.181 114.907 300.968 114.588 300.651C114.269 300.335 114.052 299.929 113.967 299.487L113.452 297.257L112.633 296.019C111.142 295.111 109.548 294.387 107.883 293.861C104.895 293.313 102.196 291.73 100.258 289.39C99.1082 288.209 97.9644 287.015 96.7357 285.924C95.3055 284.859 94.0825 283.541 93.127 282.035C92.7499 281.533 92.236 281.15 91.6469 280.932L88.9357 279.895L87.6107 276.946ZM116.184 284.017C115.718 282.821 115.646 281.507 115.978 280.267C116.171 279.264 116.205 278.237 116.079 277.224C115.685 274.424 115.594 271.589 115.809 268.77L115.594 267.277C114.752 264.682 114.913 261.865 116.047 259.382C116.598 257.956 116.77 256.41 116.547 254.897C116.329 252.467 116.297 250.022 116.189 247.601L113.594 246.189C112.844 245.822 111.903 246.121 111.206 245.299C110.923 244.966 110.026 244.99 109.478 245.132C108.038 245.561 106.515 245.626 105.043 245.322C104.431 245.288 103.818 245.37 103.236 245.564C102.521 245.827 101.734 245.812 101.03 245.52C100.327 245.228 99.7598 244.682 99.442 243.99L98.3832 242.12L99.7007 236.419L99.802 236.044C100.499 234.999 101.056 233.868 101.459 232.679C101.587 231.541 101.829 230.42 102.181 229.331C102.419 228.606 102.776 227.926 103.237 227.317C105.67 224.261 107.089 220.521 107.293 216.62C108.369 215.988 109.206 215.02 109.677 213.864C110.147 212.709 110.225 211.431 109.897 210.227L104.984 206.822L104.002 206.316C102.002 206.256 100.938 204.709 99.6882 203.482C99.3645 203.163 99.1469 202.752 99.0648 202.305C98.9828 201.857 99.0402 201.396 99.2295 200.982C99.5154 200.138 99.9339 199.345 100.469 198.632C102.273 196.536 104.227 194.576 106.028 192.477C107.257 191.046 108.329 189.477 109.469 187.961L111.532 185.234L118.133 177.534L119.266 176.61C120.958 176.139 121.738 174.516 123.033 173.545C124.099 172.746 124.068 171.477 123.389 170.091L122.923 169.052C121.079 167.295 119.819 165.015 118.048 163.232C117.173 162.518 116.421 161.667 115.819 160.711C115.363 159.804 114.101 159.55 114.032 158.336C112.836 157.075 112.186 155.265 110.417 154.576C109.627 154.148 109.005 153.466 108.651 152.64L106.596 149.41C106.427 149.137 106.16 148.939 105.85 148.856C105.54 148.773 105.21 148.812 104.928 148.965L103.971 150.047L103.809 151.172C103.843 155.533 103.432 159.885 102.581 164.161C102.465 164.793 102.446 165.439 102.524 166.076C102.646 169.789 102.322 173.503 101.558 177.139C101.247 179.412 100.512 181.62 100.037 183.872L99.5707 187.286L99.5482 188.052C98.409 191.716 97.9092 195.549 98.0707 199.382L97.872 200.492C96.5507 202.107 96.8845 204.15 96.577 205.999C96.6271 207.529 96.2973 209.049 95.6169 210.421L95.4407 211.155C95.496 213.582 95.4079 216.011 95.1769 218.427C95.2687 221.755 94.9233 225.08 94.1494 228.317C93.7455 229.946 93.7886 231.654 94.2744 233.26C94.5815 233.955 94.6624 234.729 94.5057 235.472C93.8034 237.128 93.7614 238.99 94.3882 240.676C94.5548 241.433 94.5786 242.214 94.4582 242.98C94.0967 246.055 94.2017 249.166 94.7695 252.21C95.3276 254.567 95.3276 257.022 94.7695 259.379C94.583 260.391 94.5598 261.427 94.7007 262.446C94.8342 263.851 94.8296 265.266 94.687 266.67C94.6861 268.064 94.7742 269.458 94.9507 270.841C94.9627 273.425 95.9128 275.917 97.6245 277.854L98.8745 278.612C100.376 278.948 101.684 279.862 102.514 281.157C104.282 283.461 106.515 285.366 109.069 286.747L110.968 287.995C113.063 289.481 113.059 289.487 116.192 288.811C116.547 288.062 116.73 287.243 116.729 286.414C116.728 285.584 116.542 284.766 116.186 284.017H116.184ZM103.133 38.2224C103.546 40.0974 105.239 41.0686 106.087 42.6199C107.002 44.2961 107.783 46.0511 108.587 47.7911L108.757 48.9261C108.497 51.2099 108.257 53.5011 107.882 55.7649C107.606 56.8725 107.267 57.9635 106.866 59.0324C106.581 60.0136 107.098 60.9549 106.963 62.0111C106.544 65.3024 106.377 68.6361 106.232 71.9586C106.251 73.4527 106.353 74.9446 106.537 76.4274C107.834 75.5468 108.778 74.235 109.199 72.7249C109.879 69.4874 110.917 66.3336 111.766 63.1336L111.977 61.2449C112.627 59.2036 111.944 56.8511 113.366 54.9761L113.598 53.4949C113.506 51.183 113.692 48.8685 114.153 46.6011C114.41 45.3492 114.525 44.0725 114.498 42.7949C114.432 41.8915 114.699 40.9952 115.248 40.2749C115.683 39.4767 115.786 38.5398 115.536 37.6661C115.332 36.5249 114.786 35.6386 113.608 35.6924C112.218 35.7561 111.712 34.6486 111.036 33.9949C108.934 33.6536 106.963 33.3874 105.008 32.9949C103.119 32.1942 101.009 32.0844 99.047 32.6849C100.832 34.6199 101.308 36.9074 103.133 38.2224ZM114.918 113.284C113.615 112.058 112.614 110.547 111.991 108.87C111.602 107.659 110.9 106.573 109.957 105.72L109.237 104.43L108.633 103.081C108.019 102.627 107.505 102.051 107.124 101.389C106.744 100.726 106.505 99.9919 106.423 99.2324C106.398 99.1068 106.347 98.9878 106.273 98.8829C106.2 98.7781 106.105 98.6896 105.996 98.6231C105.886 98.5566 105.764 98.5136 105.637 98.4967C105.51 98.4797 105.381 98.4894 105.258 98.5249L104.119 99.3111C103.873 99.8922 103.766 100.523 103.806 101.152L104.214 108.835C104.351 110.874 104.346 112.921 104.201 114.96C104.018 118.197 104.266 121.444 104.937 124.616C105.684 124.7 106.441 124.582 107.127 124.275C107.813 123.967 108.404 123.48 108.838 122.866C109.871 121.609 111.169 120.596 112.639 119.9C113.956 119.235 115.14 118.336 116.133 117.245C116.298 116.536 116.272 115.796 116.058 115.1C115.844 114.405 115.45 113.778 114.916 113.284H114.918ZM152.354 280.295C154.507 279.689 156.713 279.291 158.942 279.107L159.548 278.691C159.571 278.305 159.444 277.926 159.194 277.631C158.944 277.336 158.59 277.15 158.206 277.11C157.585 277.002 157 276.742 156.503 276.354C156.006 275.966 155.612 275.461 155.357 274.885C154.539 273.309 153.392 271.927 151.993 270.834L151.008 269.722C149.842 267.612 148.46 265.629 146.883 263.805C146.134 263.82 145.395 263.979 144.706 264.274C143.389 265.216 142.172 266.291 141.074 267.482C138.882 269.916 136.837 272.491 134.688 274.969C133.756 276.015 133.11 277.285 132.813 278.655L133.188 280.011L134.492 279.897C135.211 278.947 135.919 278.155 137.264 278.416C137.575 278.439 137.887 278.38 138.167 278.243C138.447 278.107 138.686 277.899 138.859 277.64C139.757 276.585 141.011 275.895 142.383 275.704C143.874 275.572 145.274 274.932 146.348 273.89L147.973 273.044C148.575 272.832 149.233 272.845 149.826 273.081C150.418 273.317 150.906 273.76 151.197 274.327L151.916 275.68C152.137 276.071 152.241 276.518 152.213 276.967C152.185 277.416 152.027 277.847 151.758 278.207C151.493 278.443 151.295 278.743 151.182 279.079C151.069 279.414 151.046 279.774 151.116 280.121L152.354 280.295ZM203.623 273.194L202.908 273.156C201.047 274.504 198.771 273.685 196.798 274.395L195.847 274.974L195.069 276.13C194.923 276.63 195.534 277.224 196.244 277.342C198.188 277.667 200.131 278.026 202.086 278.249C203.199 278.339 204.317 278.334 205.429 278.234C205.651 278.252 205.873 278.221 206.082 278.144C206.29 278.066 206.479 277.944 206.635 277.786C206.791 277.628 206.91 277.438 206.985 277.228C207.059 277.019 207.087 276.796 207.066 276.575L207.202 272.89C205.782 272.964 204.768 273.77 203.622 273.194H203.623Z" fill="#2D323B"/>
<path d="M63.6932 23.4843L59.6582 20.2756C59.4866 20.0882 59.2771 19.9394 59.0436 19.839C58.8101 19.7387 58.5579 19.6892 58.3038 19.6937C58.0497 19.6981 57.7994 19.7566 57.5696 19.8651C57.3398 19.9736 57.1357 20.1297 56.9707 20.3231L54.2782 22.9281C54.1204 24.0159 54.1887 25.1246 54.4791 26.1848C54.7695 27.245 55.2756 28.2338 55.9657 29.0893C56.1381 29.3886 56.3733 29.6469 56.655 29.8467C56.9367 30.0464 57.2584 30.1828 57.5978 30.2465C57.9372 30.3102 58.2864 30.2996 58.6214 30.2155C58.9563 30.1314 59.2691 29.9758 59.5382 29.7593L60.8057 28.9418C61.6421 28.6117 62.3495 28.0203 62.8225 27.2556C63.2955 26.4909 63.5089 25.5938 63.4307 24.6981L63.6932 23.4843Z" fill="#2D323B"/>
<path d="M48.6722 27.8796L47.2672 23.3571C45.7722 22.1937 43.9224 21.5802 42.0285 21.6196C41.2922 22.3797 40.8493 23.3763 40.7785 24.4321L40.5397 26.2984C40.3298 26.771 40.2842 27.3003 40.4101 27.8019C40.5361 28.3035 40.8264 28.7485 41.2347 29.0659L43.326 30.6459C45.391 30.4396 46.701 28.9709 48.6722 27.8796Z" fill="#2D323B"/>
</svg>
