<svg width="240" height="240" viewBox="0 0 240 240" fill="none" xmlns="http://www.w3.org/2000/svg">
<path d="M103.681 235.456C83.7813 232.745 66.0539 225.024 48.3872 211.374C25.2485 193.496 9.45696 165.774 5.45158 136C3.68352 122.857 3.68352 118.143 5.45158 105C12.4069 53.298 53.4129 12.2179 104.789 5.4831C118.877 3.63625 122.123 3.63625 136.211 5.4831C157.179 8.23179 174.542 15.6641 192.613 29.626C210.408 43.3752 223.589 62.3886 231.029 85.0392C234.166 94.5926 236.961 111.298 236.961 120.5C236.961 123.25 236.325 130.225 235.548 136C228.593 187.702 187.587 228.782 136.211 235.517C122.855 237.268 116.896 237.257 103.681 235.456ZM117 231.709C117 231.55 115.625 227.162 113.946 221.959C112.266 216.757 107.04 200.575 102.333 186C97.6257 171.425 93.4598 159.157 93.0753 158.738C92.6908 158.319 74.9606 158.094 53.6749 158.238L14.9736 158.5L20.4423 169.5C28.5126 185.733 37.4748 196.773 52.2952 208.738C65.2205 219.173 86.6363 228.417 103.645 230.901C109.667 231.781 117 232.224 117 231.709ZM149 228.341C161.921 224.999 179.02 216.557 188.705 208.738C203.525 196.773 212.487 185.733 220.558 169.5L226.026 158.5L187.325 158.238C166.039 158.094 148.309 158.319 147.925 158.738C147.54 159.157 143.374 171.425 138.667 186C133.96 200.575 128.734 216.757 127.054 221.959C125.375 227.162 124 231.603 124 231.827C124 232.848 140.433 230.556 149 228.341ZM128.472 202.5C132.186 190.95 136.749 177.007 138.612 171.515C140.475 166.023 142 160.735 142 159.765C142 158.133 140.378 158 120.5 158C101.419 158 99 158.181 99 159.607C99 160.491 101.75 169.603 105.111 179.857C108.472 190.111 112.987 203.9 115.145 210.5C117.302 217.1 119.292 223.138 119.566 223.917C120.483 226.519 121.661 223.685 128.472 202.5ZM91 151.975C91 151.411 88.0463 141.953 84.4362 130.956C79.8291 116.922 77.5188 111.179 76.6862 111.692C73.4555 113.685 21 152.183 21 152.562C21 152.803 36.75 153 56 153C79.2339 153 91 152.655 91 151.975ZM151.851 130.184C155.894 117.91 159.044 107.753 158.851 107.612C135.16 90.2913 121.461 80.6667 120.5 80.6667C119.824 80.6667 110.998 86.6716 100.886 94.011C90.7737 101.35 82.3489 107.464 82.1642 107.597C81.7521 107.893 94.8624 148.803 96.1594 151.268C97.0153 152.895 98.9847 153.015 120.795 152.768L144.5 152.5L151.851 130.184ZM220 152.562C220 152.183 167.545 113.685 164.314 111.692C163.481 111.179 161.171 116.922 156.564 130.956C152.954 141.953 150 151.411 150 151.975C150 152.655 161.766 153 185 153C204.25 153 220 152.803 220 152.562ZM45.6884 128.434C62.0848 116.512 75.6649 106.61 75.8665 106.429C76.0681 106.248 75.0364 102.365 73.5739 97.8002C72.1114 93.2351 67.1455 77.8 62.5385 63.5C57.9315 49.2 53.8703 36.4875 53.5137 35.25C52.6509 32.2564 51.7533 32.4021 47.3532 36.25C27.4244 53.6776 13.509 79.0824 10.0668 104.322C7.55832 122.716 10.4068 152.209 14.5386 150.624C15.2747 150.341 29.2921 140.356 45.6884 128.434ZM228.874 147.75C231.852 138.348 232.812 118.099 230.933 104.322C227.491 79.0824 213.576 53.6776 193.647 36.25C189.247 32.4021 188.349 32.2564 187.486 35.25C187.13 36.4875 183.069 49.2 178.462 63.5C173.855 77.8 168.889 93.2351 167.426 97.8002C165.964 102.365 164.932 106.249 165.133 106.431C167.266 108.358 226.561 151 227.108 151C227.513 151 228.308 149.538 228.874 147.75ZM99.2163 89.5039C108.309 82.9061 115.55 77.0561 115.308 76.5039C114.604 74.8992 59.9619 35.7048 59.3214 36.3453C59.0028 36.6639 61.5567 45.604 64.9967 56.2123C75.5452 88.7417 79.0299 99.4443 79.5219 100.824C79.7815 101.552 80.5993 102.002 81.3391 101.824C82.0789 101.646 90.1237 96.1018 99.2163 89.5039ZM165.507 88.5C179.95 44.1246 182.2 36.8669 181.679 36.3453C181.038 35.705 126.393 74.9007 125.697 76.5C125.15 77.7534 157.995 101.952 159.888 101.691C160.729 101.575 162.944 96.3754 165.507 88.5ZM137.08 62.0664C146.111 55.5029 155.75 48.491 158.5 46.4844C161.25 44.4778 167.887 39.6623 173.25 35.7833C178.613 31.9043 183 28.3681 183 27.9251C183 26.2107 158.07 14.972 148.5 12.3718C139.354 9.88693 136.963 9.6549 120.5 9.6549C104.037 9.6549 101.646 9.88693 92.5 12.3718C82.9295 14.972 58 26.2107 58 27.9251C58 28.3681 62.3875 31.9043 67.75 35.7833C73.1125 39.6623 79.75 44.4778 82.5 46.4844C100.088 59.3176 120.365 74 120.5 74C120.588 74 128.049 68.6299 137.08 62.0664Z" fill="white"/>
</svg>
